<?xml version="1.0" encoding="utf-8"?>
<!-- Generator: Adobe Adobe Illustrator 24.2.0, SVG Export Plug-In . SVG Version: 6.00 Build 0)  -->
<svg version="1.1" xmlns="http://www.w3.org/2000/svg" xmlns:xlink="http://www.w3.org/1999/xlink" x="0px" y="0px" width="1000px"
	 height="1000px" viewBox="0 0 1000 1000" style="enable-background:new 0 0 1000 1000;" xml:space="preserve">
<style type="text/css">
	.st0{fill:#FFFFFF;stroke:#000000;stroke-miterlimit:10;}
	.st1{font-family:'Montserrat-Bold';}
	.st2{font-size:192.7809px;}
	.st3{fill:#C07C3C;}
	.st4{font-family:'BebasNeuePro-Bold';}
	.st5{font-size:83.1593px;}
	.st6{fill:#C07C3C;stroke:#000000;stroke-width:0.9;stroke-miterlimit:10;}
	.st7{fill:#FFFFFF;stroke:#666666;stroke-miterlimit:10;}
	.st8{fill:#6D6E6B;stroke:#666666;stroke-miterlimit:10;}
	.st9{fill:#7D7D7D;}
	.st10{fill:#5D5F55;}
</style>
<g id="FUENTES">
	<g>
		<text transform="matrix(1 0 0 1 14.6826 856.5771)" class="st0 st1 st2">PACIFICA</text>
		<text transform="matrix(1 0 0 1 74.7742 940.709)" class="st3 st4 st5">CONSTRUCCIÓN Y MANTENIMIENTO</text>
	</g>
</g>
<g id="Layer_4">
	<g>
		<g>
			<polygon class="st6" points="669.16,650.71 676.91,650.71 676.91,527.21 669.91,539.46 			"/>
			<path class="st6" d="M763.8,456.08l-47.99-22.11V322.03l27.68,15.66c0.95,0.54,2.15,0.22,2.71-0.72c0.56-0.96,0.23-2.2-0.74-2.75
				l-29.65-16.83l-3.5-2.06l-35.4-20.87V184.37l29.71,20.38c1.26,0.87,2.79,1.25,4.31,1.08c1.68-0.19,2.22-2.36,0.83-3.31
				l-34.85-23.79l-1.15-0.77v-40.58c0-1.44-1.8-2.08-2.71-0.97l-0.84,1.02v38.15l-5.3-3.54l-100.34-67.17l-17.03-11.4l-0.19-0.13
				l-6.44-4.4l-2.56-1.75l-0.01-3.27l-0.06-18.16l-0.03-9.34l-0.02-8.61c0-1.32-1.08-2.37-2.4-2.34c-1.27,0.03-2.28,1.07-2.28,2.34
				l0.02,8.61l0.03,9.34l0.06,20.48v0.01l-2.75-1.75l-23.34-14.86l-8.78-5.59c-1.45-0.92-3.05-1-3.53-0.16
				c-0.46,0.8,0.29,2.15,1.7,3.05l10.61,6.75l23.34,14.86v0.09l-23.34,14.85l-114.68,72.94l-3.69,2.35v-36.84
				c0-1.14-0.99-2.02-2.12-1.89c-0.97,0.11-1.69,0.92-1.69,1.89v39.26l-2.5,1.59l-28.61,18.55c-1.11,0.72-1.39,2.24-0.6,3.31
				c0.72,0.98,2.07,1.24,3.1,0.59l26.11-16.54v32.24l-97.33,51.6v-58.96c0-1.03-0.84-1.87-1.87-1.87c-1.04,0-1.88,0.84-1.88,1.87
				v60.95l-59.07,31.31c-0.95,0.5-1.31,1.68-0.8,2.64c0.35,0.66,1.02,1.03,1.71,1.03c0.31,0,0.63-0.07,0.92-0.23l57.24-30.34v69.09
				l-59.07,31.31c-0.95,0.5-1.31,1.68-0.8,2.64c0.35,0.66,1.02,1.03,1.71,1.03c0.31,0,0.63-0.07,0.92-0.23l57.24-30.34v296.38h3.75
				V350.45l31.47-16.68v-0.2l-3.97-2.11l-27.5,14.58v-29.18l-2.21-1.17V302l2.21-1.17v-23.88l97.33-51.59v23.76l4.83-2.4l5.17-2.74
				v-23.92l138.02-73.17v49.88l10,5.49v-60.67l14.85-7.87c0.95-0.51,1.32-1.69,0.81-2.64c-0.5-0.95-1.68-1.31-2.63-0.81l-13.03,6.9
				v-32.5l23.66,15.84l41.49,27.78v105.58l-13.79-8.13l-4.14,2.2l17.93,10.57v122.31l-12.98-6.4c-1-0.49-2.2-0.09-2.69,0.91
				c-0.48,0.99-0.08,2.19,0.91,2.67l14.76,7.28v27.18h3.75v-25.33l55.1,27.18v58.07l10-17.93v-35.2l35.4,17.46l3.5,1.72l46.32,21.29
				c0.98,0.45,2.15,0.03,2.63-0.94C765.25,457.77,764.82,456.55,763.8,456.08z M532.91,128.17v14.31l-138.02,73.16v-23.8
				l114.68-72.95l23.34-14.85V128.17z M666.91,409.85l-55.1-27.18v-40.95l55.1,29.9V409.85z M666.91,367.08l-55.1-29.9V300.8
				l55.1,29.9V367.08z M666.91,326.16l-55.1-29.9v-35.54l55.1,32.49V326.16z M666.91,288.57l-55.1-32.49v-20.8l55.1,32.49V288.57z
				 M666.91,263.13l-55.1-32.48v-30.21l55.1,32.48V263.13z M666.91,228.28l-55.1-32.49V150.8l55.1,36.88V228.28z M712.31,432.25
				l-35.4-17.47v-78.65l35.4,19.21V432.25z M712.31,350.79l-35.4-19.21V299.1l35.4,20.87V350.79z"/>
		</g>
		<g>
			<g>
				<path d="M668.12,651.72c2.58,0,5.17,0,7.75,0c0.64,0,2.22-1.17,2.22-1.86c0-4.11,0-8.22,0-12.34c0-9.83,0-19.66,0-29.49
					c0-11.88,0-23.76,0-35.65c0-10.27,0-20.54,0-30.82c0-3.4,0-6.79,0-10.19c0-1.05,0-2.1,0-3.15c0-0.48,0.13-1.19,0-1.66
					c-0.02-0.06,0-0.15,0-0.22c0-0.63-2.14,1.26-2.29,1.53c-2.23,3.9-4.45,7.79-6.68,11.69c-0.59,1.03-0.39,2.17-0.39,3.34
					c-0.05,7.71-0.1,15.42-0.16,23.14c-0.08,11.75-0.16,23.49-0.24,35.24c-0.07,11.08-0.15,22.17-0.22,33.25
					c-0.03,3.75-0.05,7.51-0.08,11.26c-0.01,1.2-0.02,2.41-0.02,3.61c0,0.58-0.14,1.34-0.01,1.9c0.02,0.07,0,0.16,0,0.24
					c0,0.47,1-0.23,1.11-0.31c0.36-0.25,1.23-0.87,1.24-1.4c0.03-4.6,0.06-9.19,0.09-13.79c0.07-10.63,0.14-21.26,0.21-31.89
					c0.08-11.88,0.16-23.77,0.24-35.65c0.06-8.47,0.11-16.94,0.17-25.41c0.01-1.43-0.19-3.05,0.03-4.47
					c0.02-0.14-0.08,0.2-0.04,0.11c0.08-0.22,0.25-0.44,0.37-0.64c0.54-0.95,1.08-1.89,1.62-2.84c1.4-2.44,2.79-4.89,4.19-7.33
					c0.27-0.47,0.54-0.94,0.81-1.42c-0.76,0.51-1.53,1.02-2.29,1.53c0,4.11,0,8.22,0,12.34c0,9.83,0,19.66,0,29.49
					c0,11.88,0,23.76,0,35.65c0,10.27,0,20.54,0,30.82c0,3.4,0,6.79,0,10.19c0,1.57-0.17,3.25,0,4.81c0.01,0.07,0,0.14,0,0.22
					c0.74-0.62,1.48-1.24,2.22-1.86c-2.58,0-5.17,0-7.75,0c-0.58,0-1.21,0.6-1.59,0.98C668.53,650.76,667.68,651.72,668.12,651.72z"
					/>
			</g>
			<g>
				<path d="M764.95,455.12c-10.51-4.84-21.01-9.68-31.52-14.52c-5.12-2.36-10.24-4.72-15.36-7.08c-0.77-0.36-0.92-0.31-1.09-0.74
					c-0.29-0.76,0-2.23,0-3.03c0-27.04,0-54.09,0-81.13c0-9.14,0-18.29,0-27.43c-0.77,0.6-1.55,1.21-2.32,1.81
					c7.23,4.09,14.47,8.18,21.7,12.28c1.85,1.04,5.42,4.09,7.76,3.6c1.65-0.35,3.93-2.54,3.44-4.33c-0.31-1.13-1.51-1.59-2.44-2.12
					c-12.59-7.15-25.21-14.24-37.69-21.6c-8.63-5.09-17.26-10.18-25.89-15.26c-1.03-0.6-3.19-1.52-3.46-2.29
					c-0.47-1.35,0-3.72,0-5.13c0-18.83,0-37.65,0-56.48c0-10.16,0-20.32,0-30.47c0-3.56,0-7.13,0-10.69c0-1.95,0.32-4.2,0-6.13
					c-0.04-0.26,0-0.57,0-0.83c-0.77,0.6-1.55,1.21-2.32,1.81c9.83,6.74,19.48,13.88,29.54,20.26c2.55,1.62,6.71,1.92,8.15-1.43
					c0.9-2.09-1.06-2.97-2.48-3.93c-6.07-4.15-12.15-8.29-18.22-12.44c-4.85-3.31-9.69-6.64-14.55-9.93
					c-1.5-1.02-1.27-1.07-1.27-2.88c0-3.22,0-6.45,0-9.67c0-7.88,0-15.76,0-23.64c0-1.61,0.29-3.54,0-5.13
					c-0.64-3.49-5.02-0.55-5.78,1.46c-0.59,1.56-0.12,4.04-0.12,5.68c0,4.35,0,8.71,0,13.06c0,6.56,0,13.12,0,19.68
					c0.77-0.6,1.55-1.21,2.32-1.81c-11.07-7.39-22.12-14.8-33.18-22.21c-18.83-12.61-37.66-25.21-56.49-37.82
					c-10.78-7.22-21.57-14.41-32.34-21.65c-2.57-1.73-5.12-3.49-7.68-5.24c-0.74-0.5-1.85-0.99-2.14-1.78
					c-0.28-0.76-0.01-2.06-0.01-2.88c-0.01-1.68-0.01-3.36-0.02-5.04c-0.03-8.08-0.06-16.17-0.08-24.25
					c-0.01-2.19,0.27-4.59-0.02-6.77c-0.41-3.13-3.41-2.83-5.33-1.21c-2.97,2.51-1.69,8.09-1.68,11.54
					c0.02,8.66,0.05,17.33,0.08,25.99c0,1.26,0.01,2.53,0.01,3.79c0.77-0.6,1.55-1.21,2.32-1.81c-9.83-6.25-19.65-12.51-29.47-18.77
					c-2.16-1.38-6.23-5.15-9.03-3.92c-0.96,0.42-2.29,1.55-2.36,2.68c-0.09,1.67,1.95,2.68,3.16,3.45c4.55,2.89,9.1,5.79,13.64,8.68
					c4.01,2.55,8.02,5.11,12.03,7.66c1.6,1.02,3.2,2.04,4.8,3.05c0.19,0.12,2.15,1.17,2.15,1.36c0.51-0.53,1.03-1.06,1.54-1.6
					c-15,9.55-30.01,19.09-45.02,28.64c-25.47,16.2-50.94,32.4-76.4,48.59c-6.76,4.3-13.53,8.6-20.29,12.91
					c0.27-0.04,0.54-0.07,0.81-0.11c0-11.88,0-23.75,0-35.63c0-2.28-1.23-4.17-3.75-2.69c-1.89,1.11-2.4,2.56-2.4,4.55
					c0,6.69,0,13.37,0,20.06c0,5.94,0,11.89,0,17.83c0.51-0.53,1.03-1.06,1.54-1.6c-9.32,5.92-18.54,11.99-27.8,18
					c-1.19,0.77-2.47,1.49-3.61,2.34c-0.97,0.73-2.02,1.67-2.22,2.92c-0.3,1.87,1.36,3.19,3.14,2.79c1.41-0.32,2.89-1.62,4.06-2.37
					c2.79-1.77,5.58-3.53,8.37-5.3c4.94-3.13,9.89-6.26,14.83-9.39c-0.27,0.04-0.54,0.07-0.81,0.11c0,10.75,0,21.49,0,32.24
					c0.6-0.58,1.21-1.16,1.81-1.74c-12.43,6.59-24.87,13.18-37.3,19.78c-17.86,9.47-35.73,18.94-53.59,28.41
					c-1.83,0.97-4.03,1.79-5.7,3.02c-1.03,0.76-0.25-0.06-0.2,0.41c-0.07-0.62,0-1.3,0-1.92c0-9.18,0-18.36,0-27.54
					c0-9.22,0-18.43,0-27.65c0-0.58,0.1-1.25,0-1.82c-0.47-2.71-3.02-2.19-4.63-0.78c-1.88,1.65-1.47,3.68-1.47,5.93
					c0,18.64,0,37.29,0,55.93c0,0.52,0,1.04,0,1.56c0.6-0.58,1.21-1.16,1.81-1.74c-12.98,6.88-25.96,13.76-38.94,20.64
					c-6.26,3.32-12.53,6.64-18.79,9.96c-1.63,0.86-3.96,1.93-4.14,3.98c-0.31,3.44,3.29,2,4.92,1.13
					c15.03-7.97,30.06-15.93,45.09-23.9c2.8-1.49,5.61-2.97,8.41-4.46c0.63-0.33,1.26-0.72,1.91-1.01c0.47-0.21-0.18-0.33-0.27,0.15
					c-0.35,1.91,0,4.2,0,6.14c0,3.93,0,7.87,0,11.8c0,9.84,0,19.68,0,29.52c0,4.22,0,8.45,0,12.67c0,2.48-0.26,5.12,0,7.58
					c0.04,0.34,0,0.7,0,1.04c0.6-0.58,1.21-1.16,1.81-1.74c-13.73,7.28-27.46,14.55-41.18,21.83c-5.82,3.09-11.76,6.02-17.49,9.27
					c-0.78,0.44-1.56,0.89-2.17,1.56c-1.55,1.68-1.15,4.66,1.65,4.08c1.52-0.31,3.01-1.44,4.36-2.15
					c16.03-8.5,32.06-16.99,48.09-25.49c1.57-0.83,3.58-2.43,5.33-2.82c-0.57,0.13-0.16-0.25-0.38,0.68c-0.54,2.35,0,5.48,0,7.88
					c0,12.13,0,24.25,0,36.38c0,18.35,0,36.7,0,55.04c0,21.04,0,42.09,0,63.13c0,20.21,0,40.42,0,60.64c0,15.79,0,31.59,0,47.38
					c0,7.98-0.4,16.07,0,24.04c0.02,0.36,0,0.72,0,1.08c-0.01,0.1,0.03,0.15,0.13,0.16c1.25,0,2.5,0,3.75,0
					c0.64,0,2.22-1.17,2.22-1.86c0-9.91,0-19.82,0-29.73c0-23.79,0-47.58,0-71.37c0-28.67,0-57.34,0-86.01c0-24.8,0-49.59,0-74.39
					c0-8.26,0-16.51,0-24.77c0-2.53,0-5.06,0-7.59c0-1.19,0.3-2.83,0-3.99c-0.04-0.15,0-0.36,0-0.52c-0.6,0.58-1.21,1.16-1.81,1.74
					c10.49-5.56,20.98-11.12,31.47-16.68c0.51-0.27,1.81-1.05,1.81-1.74c0-0.07,0-0.13,0-0.2c-0.01-0.04-0.02-0.08-0.03-0.11
					c-1.26-0.67-3.11-2.24-4.5-2.03c-1.04,0.16-2.42,1.28-3.34,1.77c-5.27,2.8-10.55,5.59-15.82,8.39
					c-2.15,1.14-4.29,2.27-6.44,3.41c-0.52,0.28-1.03,0.59-1.57,0.83c-0.55,0.25,0.16,0.36,0.22-0.11c0.5-4.64,0-9.6,0-14.27
					c0-4.86,0-9.73,0-14.59c-0.01-0.04-0.02-0.08-0.03-0.11c-0.91-0.48-1.89-0.74-2.18-1.55c-0.43-1.2,0-3.35,0-4.61
					c0-2.86,0-5.72,0-8.59c-0.6,0.58-1.21,1.16-1.81,1.74c0.74-0.39,1.47-0.78,2.21-1.17c0.51-0.27,1.81-1.05,1.81-1.74
					c0-7.96,0-15.92,0-23.88c-0.6,0.58-1.21,1.16-1.81,1.74c14.98-7.94,29.96-15.88,44.94-23.82c10.93-5.79,21.86-11.58,32.78-17.38
					c4.05-2.15,8.1-4.29,12.15-6.44c2.16-1.14,4.74-2.12,6.72-3.56c0.96-0.7,0.28-0.39,0.2,0.03c-0.44,2.25,0,5.04,0,7.33
					c0,5.32,0,10.64,0,15.96c0,0.29,0.41,0.11,0.54,0.04c3.36-1.67,6.68-3.38,10-5.14c0.51-0.27,1.81-1.05,1.81-1.74
					c0-7.97,0-15.95,0-23.92c-0.6,0.58-1.21,1.16-1.81,1.74c7.56-4.01,15.12-8.01,22.67-12.02c16.42-8.71,32.84-17.41,49.26-26.12
					c15.97-8.46,31.93-16.93,47.9-25.39c4.8-2.54,9.59-5.09,14.39-7.63c1.07-0.57,2.31-1.05,3.3-1.75c0.07-0.05,0.4-0.27,0.49-0.26
					c-0.85-0.14-0.54,0.67-0.54,1.35c0,15.69,0,31.39,0,47.08c0,0.47,0,0.93,0,1.4c0.01,0.04,0.02,0.08,0.03,0.11
					c3.33,1.83,6.67,3.66,10,5.49c0.57,0.32,2.32-1.23,2.32-1.81c0-17.68,0-35.36,0-53.04c0-2.54,0-5.09,0-7.63
					c-0.6,0.58-1.21,1.16-1.81,1.74c4.58-2.43,9.17-4.86,13.75-7.29c1.54-0.82,3.72-1.9,3.9-3.85c0.31-3.42-3.31-1.99-4.92-1.14
					c-2.75,1.46-5.5,2.91-8.24,4.37c-0.91,0.48-1.9,1.2-2.89,1.53c-0.69,0.23,0.21,0.18,0.21,0.16c-0.02-0.17-0.04-0.47,0-0.63
					c0.42-1.85,0-4.29,0-6.18c0-3.33,0-6.66,0-9.98c0-5.22,0-10.43,0-15.65c-0.77,0.6-1.55,1.21-2.32,1.81
					c21.02,14.07,42.04,28.15,63.06,42.22c0.57,0.38,1.95,1.17,2.07,1.45c0.34,0.81,0,2.55,0,3.41c0,5.44,0,10.88,0,16.32
					c0,17.07,0,34.15,0,51.22c0,11.49,0,22.98,0,34.47c0.77-0.6,1.55-1.21,2.32-1.81c-3.53-2.08-7.06-4.16-10.59-6.24
					c-0.76-0.45-2.38-1.86-3.31-1.93c-1.25-0.09-3.45,1.74-4.54,2.32c-0.21,0.11-2.21,1.6-1.78,1.86c4.48,2.64,8.96,5.28,13.43,7.92
					c0.85,0.5,4.11,1.9,4.47,2.54c0.15,0.26,0,1.01,0,1.29c0,7.79,0,15.58,0,23.37c0,25.91,0,51.82,0,77.73c0,6.64,0,13.27,0,19.91
					c0.77-0.6,1.55-1.21,2.32-1.81c-4.16-2.05-8.27-4.37-12.53-6.18c-1.89-0.8-3.5-0.09-4.79,1.49c-1.8,2.21-0.23,3.55,1.73,4.52
					c2.6,1.28,5.19,2.56,7.79,3.84c1.16,0.57,2.33,1.15,3.49,1.72c0.43,0.21,1.69,0.57,1.99,0.98c0.28,0.39,0,2.95,0,3.71
					c0,2.86,0,5.72,0,8.59c0,4.93,0,9.86,0,14.79c-0.01,0.1,0.03,0.15,0.13,0.16c1.25,0,2.5,0,3.75,0c0.64,0,2.22-1.17,2.22-1.86
					c0-8.44,0-16.89,0-25.33c-0.77,0.6-1.55,1.21-2.32,1.81c15.66,7.73,31.33,15.45,46.99,23.18c1.63,0.8,3.26,1.61,4.88,2.41
					c0.83,0.41,2.09,0.77,2.79,1.38c0.73,0.64,0.41,2.33,0.41,3.71c0,9.87,0,19.75,0,29.62c0,8.28,0,16.56,0,24.84
					c0,0.62,2.14-1.25,2.29-1.53c1.81-3.25,3.62-6.49,5.43-9.74c1.14-2.04,2.28-4.08,3.41-6.12c0.39-0.71,1.02-1.5,1.21-2.29
					c0.2-0.84,0-1.98,0-2.84c0-2.11,0-4.21,0-6.32c0-5.32,0-10.64,0-15.96c0-3.34,0-6.68,0-10.03c-0.77,0.6-1.55,1.21-2.32,1.81
					c11.83,5.84,23.66,11.68,35.5,17.51c13.39,6.59,27.11,12.57,40.67,18.8c2.83,1.3,5.63,2.76,8.53,3.92
					C763.39,461.61,768.39,457.65,764.95,455.12c-0.59-0.43-2.6,1.7-2.3,1.93c0.73,0.54,1.93,1.72,0.49,1.65
					c-0.2-0.01-0.49-0.24-0.68-0.31c-0.97-0.4-1.92-0.88-2.87-1.32c-3.21-1.48-6.42-2.95-9.64-4.43c-7.98-3.67-15.96-7.34-23.94-11
					c-9.73-4.47-19.31-9.21-28.92-13.95c-6.35-3.13-12.69-6.26-19.04-9.39c-0.59-0.29-2.32,1.21-2.32,1.81c0,7.83,0,15.66,0,23.5
					c0,3.62,0.37,7.46,0,11.07c-0.19,1.88-2.38,4.83-3.52,6.87c-2.14,3.84-4.28,7.68-6.42,11.52c0.76-0.51,1.53-1.02,2.29-1.53
					c0-16.94,0-33.89,0-50.83c0-2.41,0-4.82,0-7.24c-0.01-0.04-0.02-0.08-0.03-0.11c-16.05-7.92-32.1-15.83-48.15-23.75
					c-2.32-1.14-4.64-2.29-6.95-3.43c-0.59-0.29-2.32,1.21-2.32,1.81c0,8.44,0,16.89,0,25.33c0.74-0.62,1.48-1.24,2.22-1.86
					c-0.64,0-3.36,0.33-3.63,0.07c-0.03-0.03,0.01-1.21,0.01-1.5c0-3.11,0-6.21,0-9.32c0-5.42,0-10.85,0-16.27
					c-0.01-0.04-0.02-0.08-0.03-0.11c-2.37-1.17-4.74-2.34-7.11-3.51c-2.38-1.17-5.52-2.14-7.62-3.76c-0.78-0.6-2.05-1.93-0.51-1.65
					c0.31,0.06,0.65,0.33,0.93,0.46c1.42,0.64,2.79,1.38,4.19,2.06c2.61,1.29,5.22,2.57,7.83,3.86c0.59,0.29,2.32-1.21,2.32-1.81
					c0-17.88,0-35.77,0-53.65c0-22.05,0-44.09,0-66.14c0-2.83,0.01-2.61-2.64-4.17c-5.11-3.01-10.21-6.02-15.32-9.03
					c-0.59,0.62-1.19,1.24-1.78,1.86c0.77-0.41,1.55-0.83,2.32-1.24c0.45-0.24,1.01-0.7,1.51-0.8c0.62-0.13-0.43-0.1-0.11-0.03
					c1.27,0.25,2.93,1.73,4.03,2.37c3.22,1.9,6.45,3.8,9.67,5.7c0.56,0.33,2.32-1.24,2.32-1.81c0-26.89,0-53.78,0-80.67
					c0-6.31,0-12.62,0-18.93c0-1.53,0.64-4.94-0.22-6.22c-0.9-1.34-3.8-2.54-5.12-3.43c-3.1-2.07-6.19-4.15-9.29-6.22
					c-6.95-4.66-13.91-9.31-20.86-13.97c-9.89-6.62-19.79-13.25-29.68-19.87c-0.54-0.36-2.32,1.27-2.32,1.81c0,10.83,0,21.67,0,32.5
					c0,0.29,0.41,0.11,0.54,0.04c2.44-1.29,4.87-2.58,7.31-3.87c1.5-0.79,3-1.59,4.5-2.38c0.33-0.17,0.74-0.5,1.11-0.59
					c0.39-0.09,3.29,0.74,3.1,1.66c-0.08,0.38-2.51,1.33-2.85,1.51c-1.58,0.84-3.16,1.68-4.75,2.52c-2.39,1.26-4.77,2.53-7.16,3.79
					c-0.51,0.27-1.81,1.05-1.81,1.74c0,17.68,0,35.36,0,53.04c0,2.54,0,5.09,0,7.63c0.77-0.6,1.55-1.21,2.32-1.81
					c-1.75-0.96-3.51-1.92-5.26-2.89c-0.94-0.52-4.3-1.79-4.72-2.53c-0.28-0.49,0-1.93,0-2.48c0-1.8,0-3.59,0-5.39
					c0-10.97,0-21.94,0-32.91c0-3.02,0-6.04,0-9.06c0-0.29-0.41-0.11-0.54-0.04c-15.58,8.26-31.17,16.52-46.75,24.78
					c-24.73,13.11-49.46,26.22-74.2,39.33c-5.69,3.02-11.38,6.03-17.07,9.05c-0.51,0.27-1.81,1.05-1.81,1.74c0,7.97,0,15.95,0,23.92
					c0.6-0.58,1.21-1.16,1.81-1.74c-2.52,1.33-5.03,2.67-7.59,3.94c-0.48,0.24-1.72,1.17-2.24,1.12c0.3,0.03,0.37,0.24,0.37-0.34
					c-0.01-1.23,0-2.47,0-3.7c0-6.53,0-13.06,0-19.59c0-0.29-0.41-0.11-0.54-0.04c-10.98,5.82-21.96,11.64-32.94,17.46
					c-17.42,9.23-34.84,18.46-52.25,27.7c-4.05,2.15-8.09,4.29-12.14,6.44c-0.51,0.27-1.81,1.05-1.81,1.74c0,7.96,0,15.92,0,23.88
					c0.6-0.58,1.21-1.16,1.81-1.74c-0.74,0.39-1.47,0.78-2.21,1.17c-0.51,0.27-1.81,1.05-1.81,1.74c0,4.56,0,9.13,0,13.69
					c0.01,0.04,0.02,0.08,0.03,0.11c0.67,0.36,1.95,0.76,2.18,1.31c0.25,0.61,0,1.91,0,2.55c0,3.33,0,6.66,0,9.99
					c0,5.46,0,10.92,0,16.38c0,0.29,0.41,0.11,0.54,0.04c5.55-2.94,11.09-5.88,16.64-8.82c3.08-1.63,6.16-3.27,9.24-4.9
					c0.37-0.2,1.72-0.77,1.39-0.8c-0.3-0.02,1.35,0.88,1.7,1.06c0.28,0.15,1.96,0.8,1.96,1.14c0.6-0.58,1.21-1.16,1.81-1.74
					c-10.49,5.56-20.98,11.12-31.47,16.68c-0.51,0.27-1.81,1.05-1.81,1.74c0,9.91,0,19.82,0,29.73c0,23.79,0,47.58,0,71.37
					c0,28.67,0,57.34,0,86.01c0,24.8,0,49.59,0,74.39c0,8.26,0,16.51,0,24.77c0,2.53,0,5.06,0,7.59c0,1.21-0.28,2.81,0,3.99
					c0.04,0.15,0,0.36,0,0.52c0.74-0.62,1.48-1.24,2.22-1.86c-0.83,0-3.49,0.2-3.62,0.01c-0.12-0.17,0-0.86,0-1.06
					c0.02-1.7,0-3.41,0-5.11c0-6.87,0-13.73,0-20.6c0-23.35,0-46.7,0-70.05c0-28.93,0-57.87,0-86.8c0-25.11,0-50.22,0-75.32
					c0-8.28,0-16.57,0-24.85c0-2.63,0-5.27,0-7.9c0-1.13,0.35-2.93,0-4.02c-0.05-0.14,0-0.37,0-0.52c0-0.29-0.41-0.11-0.54-0.04
					c-17.03,9.03-34.05,18.05-51.08,27.08c-1.75,0.93-4.18,2.9-6.15,3.26c-0.88,0.16-3.2-1.08-2.88-1.77
					c0.08-0.18,0.78-0.42,0.95-0.5c1.29-0.68,2.57-1.36,3.86-2.04c10.1-5.35,20.2-10.71,30.3-16.06
					c7.91-4.19,15.82-8.39,23.73-12.58c0.51-0.27,1.81-1.05,1.81-1.74c0-20.15,0-40.31,0-60.46c0-2.88,0-5.75,0-8.63
					c0-0.29-0.41-0.11-0.54-0.04c-17.03,9.03-34.05,18.05-51.08,27.08c-1.75,0.93-4.18,2.9-6.15,3.26c-0.88,0.16-3.2-1.08-2.88-1.77
					c0.08-0.18,0.78-0.42,0.95-0.5c1.29-0.68,2.57-1.36,3.86-2.04c10.1-5.35,20.2-10.71,30.3-16.06
					c7.91-4.19,15.82-8.39,23.73-12.58c0.51-0.27,1.81-1.05,1.81-1.74c0-17.65,0-35.3,0-52.95c0-1.7,0-3.41,0-5.11
					c0-0.67-0.28-2.07,0-2.69c0.34-0.75,1.31,1.18,1.4,1.95c0.12,1.01,0,2.11,0,3.12c0,10.14,0,20.27,0,30.41
					c0,8.33,0,16.66,0,24.98c0,0.29,0.41,0.11,0.54,0.04c10.98-5.82,21.96-11.64,32.94-17.46c17.42-9.23,34.84-18.47,52.25-27.7
					c4.05-2.15,8.09-4.29,12.14-6.44c0.51-0.27,1.81-1.05,1.81-1.74c0-10.75,0-21.49,0-32.24c0-0.38-0.71,0.04-0.81,0.11
					c-4.01,2.54-8.03,5.08-12.04,7.63c-2.89,1.83-5.79,3.67-8.68,5.5c-1.53,0.97-3.44,2.73-5.18,3.28
					c-0.28,0.09-0.52,0.22-0.85,0.22c-0.62,0-1.3-0.39-1.66-0.9c0.83,1.15-0.63-2.18-0.88-1.62c0.13-0.3,1.02-0.66,1.28-0.83
					c2.13-1.38,4.27-2.77,6.4-4.15c5.63-3.65,11.26-7.3,16.89-10.95c1.9-1.23,7.36-3.68,8.04-5.81c0.37-1.14,0-3.03,0-4.21
					c0-2.96,0-5.93,0-8.89c0-6.74,0-13.48,0-20.22c0-1.16-0.61-4.47,0-5.49c0.81-1.36,1.46,1.52,1.46,2.49c0,11.88,0,23.75,0,35.63
					c0,0.38,0.71-0.04,0.81-0.11c11.26-7.17,22.53-14.33,33.8-21.5c20.13-12.8,40.26-25.61,60.4-38.41
					c10.23-6.5,20.46-13.01,30.68-19.52c4.78-3.04,9.56-6.08,14.34-9.12c0.97-0.62,2.05-1.18,2.95-1.91
					c1.29-1.06,1.26-1.23,0.19-2.03c-7.07-5.26-15.06-9.59-22.5-14.33c-3.6-2.29-7.66-4.32-10.96-7.02
					c-0.34-0.28-0.71-0.57-0.96-0.94c-0.16-0.39-0.31-0.78-0.47-1.17c-0.09,0.26-0.19,0.52-0.28,0.79c1.3,0.62,1.21,0.44,1.95,0.86
					c1.05,0.59,2.05,1.3,3.06,1.95c1.8,1.15,3.6,2.29,5.4,3.44c7.58,4.83,15.16,9.66,22.75,14.48c1.11,0.71,2.22,1.42,3.34,2.12
					c0.55,0.35,2.32-1.26,2.32-1.81c0-7.47-0.04-14.94-0.07-22.41c-0.01-4.1-0.03-8.21-0.04-12.31c0-0.79-0.34-2.55-0.01-3.28
					c0.67-1.46,2.13,0.08,2.33,1.39c0.34,2.27,0.01,4.84,0.02,7.13c0.02,7.75,0.05,15.5,0.07,23.24c0.01,1.82,0.01,3.63,0.02,5.45
					c0,1.51-0.37,2.92,0.64,3.96c2.3,2.34,5.92,4.07,8.63,5.9c9.98,6.75,20.02,13.4,30.03,20.1c18.02,12.07,36.05,24.13,54.07,36.2
					c11.12,7.45,22.24,14.9,33.36,22.33c1.72,1.15,3.44,2.3,5.16,3.44c0.54,0.36,2.32-1.27,2.32-1.81c0-11.81,0-23.62,0-35.43
					c0-0.76-0.01-1.52,0-2.28c0-0.13-0.03-0.3,0-0.42c-0.17,0.85-0.39-0.05,0.04,0.1c0.33-0.62,0.56-0.44,0.68,0.51
					c0.16,0.34,0.32,0.68,0.47,1.02c0.23,1.29,0,2.84,0,4.14c0,7.17,0,14.34,0,21.51c0,3.33,0,6.66,0,9.99c0,1.2-0.51,3.77,0,4.89
					c0.28,0.62,2.02,1.51,2.65,1.93c2.23,1.52,4.46,3.05,6.69,4.57c6.17,4.21,12.35,8.43,18.52,12.64c2.23,1.52,4.46,3.05,6.69,4.57
					c0.42,0.29,0.99,0.56,1.35,0.92c0.18,0.19,0.45,0.32,0.6,0.55c1.39,2.22-2.89,0.09-3.33-0.18c-5.11-3.08-9.93-6.81-14.84-10.18
					c-4.95-3.4-9.9-6.79-14.86-10.19c-0.54-0.37-2.32,1.27-2.32,1.81c0,12.71,0,25.41,0,38.12c0,19.89,0,39.78,0,59.66
					c0,2.88,0,5.76,0,8.64c0,0.85-0.39,2.84,0,3.63c0.57,1.16,3.62,2.27,4.71,2.92c4.17,2.46,8.33,4.91,12.5,7.37
					c12.57,7.41,25.16,14.75,37.85,21.96c3.88,2.2,7.77,4.41,11.65,6.61c0.68,0.39,1.62,0.74,2.17,1.32
					c2.26,2.44-0.87,0.77-1.66,0.33c-7.97-4.51-15.93-9.01-23.9-13.52c-0.7-0.4-1.4-0.79-2.1-1.19c-0.57-0.32-2.32,1.24-2.32,1.81
					c0,12.64,0,25.27,0,37.91c0,20.04,0,40.08,0,60.11c0,4.64,0,9.28,0,13.92c0.01,0.04,0.02,0.08,0.03,0.11
					c13.96,6.43,27.91,12.86,41.87,19.29c2.04,0.94,4.08,1.88,6.12,2.82C763.41,457.39,765.13,455.2,764.95,455.12z"/>
				<path d="M531.74,129.02c0,4.77,0,9.54,0,14.31c0.6-0.58,1.21-1.16,1.81-1.74c-4.57,2.42-9.14,4.84-13.71,7.27
					c-11.01,5.84-22.02,11.67-33.04,17.51c-13.29,7.04-26.57,14.08-39.86,21.13c-11.48,6.09-22.96,12.17-34.45,18.26
					c-3.78,2.01-7.57,4.01-11.35,6.02c-1.18,0.63-2.37,1.25-3.55,1.88c-0.56,0.3-1.35,0.56-1.84,0.97
					c-0.06,0.05-0.16,0.09-0.23,0.12c0.18,0.01,0.36,0.03,0.54,0.04c0-6.95,0-13.9,0-20.84c0-0.99,0-1.97,0-2.96
					c-0.51,0.53-1.03,1.06-1.54,1.6c5.35-3.41,10.71-6.81,16.06-10.22c12.08-7.68,24.15-15.36,36.23-23.04
					c12.76-8.12,25.53-16.24,38.29-24.36c7.64-4.86,15.27-9.72,22.91-14.57c7.75-4.93,15.51-9.87,23.26-14.8
					c0.42-0.27,0.85-0.54,1.27-0.81c-0.27,0.04-0.54,0.07-0.81,0.11c0,7.04,0,14.08,0,21.12
					C531.74,127.02,531.74,128.02,531.74,129.02c0,0.47,1-0.22,1.11-0.31c0.35-0.25,1.24-0.88,1.24-1.4c0-7.04,0-14.08,0-21.12
					c0-1,0-2,0-3.01c0-0.38-0.71,0.04-0.81,0.11c-5.75,3.66-11.5,7.32-17.26,10.98c-2.53,1.61-5.05,3.21-7.58,4.82
					c-3.58,2.28-7.16,4.56-10.75,6.84c-6.08,3.87-12.16,7.74-18.25,11.61c-7.44,4.73-14.89,9.47-22.33,14.2
					c-7.66,4.88-15.33,9.75-22.99,14.63c-6.75,4.29-13.49,8.58-20.24,12.88c-4.69,2.98-9.38,5.97-14.07,8.95
					c-1.21,0.77-2.43,1.54-3.64,2.32c-0.88,0.56-2.27,1.24-2.46,2.29c-0.18,0.97,0,2.14,0,3.11c0,2.03,0,4.05,0,6.08
					c0,4.09,0,8.19,0,12.28c0,0.74,0,1.48,0,2.22c0,0.29,0.41,0.11,0.54,0.04c4.57-2.42,9.14-4.84,13.71-7.27
					c11.01-5.84,22.02-11.67,33.04-17.51c13.29-7.04,26.57-14.08,39.86-21.13c11.48-6.09,22.96-12.17,34.45-18.26
					c5.58-2.96,11.17-5.9,16.74-8.87c0.08-0.04,0.16-0.08,0.23-0.12c0.51-0.27,1.81-1.05,1.81-1.74c0-4.77,0-9.54,0-14.31
					c0-0.47-1,0.22-1.11,0.31C532.62,127.88,531.74,128.5,531.74,129.02z"/>
				<path d="M668.06,408.89c-4.56-2.25-9.13-4.5-13.69-6.75c-8.64-4.26-17.28-8.52-25.91-12.78c-3.46-1.7-6.91-3.41-10.37-5.11
					c-1.12-0.55-2.25-1.11-3.37-1.66c-0.5-0.25-1.22-0.46-1.65-0.81c-0.19-0.15-0.01,0.14-0.08-0.02c-0.08-0.19,0-0.6,0-0.8
					c0-1.25,0-2.5,0-3.75c0-4.33,0-8.65,0-12.98c0-4.75,0-9.49,0-14.24c0-2.87,0.14-5.79,0-8.66c-0.01-0.15,0-0.29,0-0.44
					c-0.77,0.6-1.55,1.21-2.32,1.81c4.3,2.34,8.61,4.67,12.91,7.01c8.31,4.51,16.62,9.02,24.94,13.53
					c5.57,3.02,11.14,6.05,16.71,9.07c0.14,0.07,0.37,0.15,0.48,0.26c0.13,0.13-0.04-0.2,0.04,0.07c0.21,0.74,0,1.87,0,2.63
					c0,3.96,0,7.92,0,11.88c0,7.7-0.18,15.43,0,23.13c0,0.15,0,0.29,0,0.44c0,0.47,1-0.22,1.11-0.31c0.35-0.25,1.24-0.88,1.24-1.4
					c0-11.14,0-22.28,0-33.42c0-1.6,0-3.2,0-4.81c-0.01-0.04-0.02-0.08-0.03-0.11c-6.2-3.36-12.4-6.73-18.6-10.09
					c-9.89-5.37-19.78-10.73-29.66-16.1c-2.28-1.24-4.56-2.47-6.84-3.71c-0.58-0.31-2.32,1.23-2.32,1.81c0,11.97,0,23.93,0,35.9
					c0,1.68,0,3.37,0,5.05c0.01,0.04,0.02,0.08,0.03,0.11c6.21,3.06,12.42,6.12,18.62,9.19c9.89,4.88,19.78,9.76,29.68,14.64
					c2.27,1.12,4.53,2.24,6.8,3.35C666.5,411.18,668.26,408.98,668.06,408.89z"/>
				<path d="M668.06,366.12c-4.15-2.25-8.29-4.5-12.44-6.75c-8.16-4.43-16.32-8.86-24.48-13.28c-5.76-3.13-11.52-6.25-17.29-9.38
					c-0.13-0.07-0.97-0.56-0.87-0.38c-0.21-0.39,0-1.49,0-1.92c0-3.7,0-7.4,0-11.1c0-4.68,0-9.36,0-14.04c0-2.94,0.14-5.92,0-8.86
					c-0.01-0.15,0-0.31,0-0.46c-0.77,0.6-1.55,1.21-2.32,1.81c4.15,2.25,8.29,4.5,12.44,6.75c8.16,4.43,16.32,8.86,24.48,13.28
					c5.76,3.13,11.52,6.25,17.29,9.38c0.13,0.07,0.97,0.56,0.87,0.38c0.21,0.39,0,1.49,0,1.92c0,3.7,0,7.4,0,11.1
					c0,7.63-0.15,15.27,0,22.9c0,0.15,0,0.31,0,0.46c0,0.47,1-0.22,1.11-0.31c0.35-0.25,1.24-0.88,1.24-1.4c0-10.63,0-21.27,0-31.9
					c0-1.49,0-2.98,0-4.48c-0.01-0.04-0.02-0.08-0.03-0.11c-6.2-3.36-12.4-6.73-18.6-10.09c-9.89-5.37-19.78-10.73-29.66-16.1
					c-2.28-1.24-4.56-2.47-6.84-3.71c-0.58-0.31-2.32,1.23-2.32,1.81c0,10.63,0,21.27,0,31.9c0,1.49,0,2.98,0,4.48
					c0.01,0.04,0.02,0.08,0.03,0.11c6.2,3.36,12.4,6.73,18.6,10.09c9.89,5.37,19.78,10.73,29.66,16.1c2.28,1.24,4.56,2.47,6.84,3.71
					C666.47,368.43,668.28,366.24,668.06,366.12z"/>
				<path d="M668.06,325.2c-4.08-2.22-8.17-4.43-12.25-6.65c-8.12-4.4-16.23-8.81-24.35-13.21c-5.8-3.15-11.6-6.3-17.4-9.44
					c-0.28-0.15-0.87-0.33-1.08-0.59c0.09,0.11,0.02-0.02,0.02-0.24c-0.01-0.4,0-0.8,0-1.2c0-3.56,0-7.13,0-10.69
					c0-4.64,0-9.29,0-13.93c0-2.95,0.17-5.95,0-8.89c-0.01-0.15,0-0.31,0-0.47c-0.77,0.6-1.55,1.21-2.32,1.81
					c3.87,2.28,7.73,4.56,11.6,6.84c7.8,4.6,15.6,9.2,23.4,13.8c6.03,3.56,12.06,7.11,18.1,10.67c0.58,0.34,1.16,0.69,1.74,1.03
					c0.35,0.2,0.25,0,0.24,0.51c-0.07,3.03,0,6.06,0,9.09c0,7.64-0.14,15.29,0,22.92c0,0.16,0,0.31,0,0.47c0,0.47,1-0.22,1.11-0.31
					c0.35-0.25,1.24-0.88,1.24-1.4c0-6.73,0-13.46,0-20.19c0-3.68,0-7.35,0-11.03c0-0.41,0.21-1.46-0.03-1.84
					c-0.12-0.2-0.67-0.39-0.87-0.51c-5.42-3.2-10.84-6.39-16.27-9.59c-7.89-4.65-15.79-9.31-23.68-13.96
					c-3.11-1.83-6.22-3.67-9.33-5.5c-1.54-0.91-3.1-2.07-4.74-2.8c-0.07-0.03-0.14-0.09-0.21-0.13c-0.56-0.33-2.32,1.24-2.32,1.81
					c0,10.38,0,20.77,0,31.15c0,1.46,0,2.93,0,4.39c0.01,0.04,0.02,0.08,0.03,0.11c6.2,3.36,12.4,6.73,18.6,10.09
					c9.89,5.37,19.78,10.73,29.66,16.1c2.28,1.24,4.56,2.47,6.84,3.71C666.47,327.51,668.28,325.32,668.06,325.2z"/>
				<path d="M668.06,287.61c-9.69-5.71-19.37-11.42-29.06-17.13c-6.33-3.73-12.66-7.47-18.99-11.2c-1.87-1.1-3.74-2.21-5.62-3.31
					c-0.41-0.24-0.92-0.45-1.28-0.75c-0.06-0.05-0.24-0.17-0.13,0.02c-0.08-0.15,0-0.56,0-0.72c0-6.69,0-13.38,0-20.08
					c-0.77,0.6-1.55,1.21-2.32,1.81c9.69,5.71,19.37,11.42,29.06,17.13c6.33,3.73,12.66,7.47,18.99,11.2
					c1.87,1.1,3.74,2.21,5.62,3.31c0.41,0.24,0.92,0.45,1.28,0.75c0.06,0.05,0.24,0.17,0.13-0.02c0.08,0.15,0,0.56,0,0.72
					c0,6.69,0,13.38,0,20.08c0,0.47,1-0.22,1.11-0.31c0.35-0.25,1.24-0.88,1.24-1.4c0-6.21,0-12.42,0-18.64c0-0.53,0.23-1.66,0-2.16
					c-0.11-0.24-0.41-0.34-0.64-0.48c-1.53-0.9-3.07-1.81-4.6-2.71c-12.85-7.58-25.7-15.16-38.56-22.73
					c-3.78-2.23-7.55-4.45-11.33-6.68c-0.56-0.33-2.32,1.24-2.32,1.81c0,6.21,0,12.42,0,18.64c0,0.53-0.23,1.66,0,2.16
					c0.11,0.24,0.41,0.34,0.64,0.48c1.53,0.9,3.07,1.81,4.6,2.71c12.85,7.58,25.7,15.16,38.56,22.73c3.78,2.23,7.55,4.45,11.33,6.68
					C666.44,289.93,668.31,287.75,668.06,287.61z"/>
				<path d="M668.06,262.17c-3.69-2.17-7.37-4.35-11.06-6.52c-7.53-4.44-15.05-8.87-22.58-13.31c-6.2-3.66-12.4-7.31-18.6-10.97
					c-0.72-0.42-1.44-0.85-2.16-1.27c-0.14-0.08-0.76-0.5-0.67-0.32c-0.24-0.49,0-1.71,0-2.24c0-1.66,0-3.32,0-4.99
					c0-7.48,0-14.97,0-22.45c0-0.17,0-0.34,0-0.51c-0.77,0.6-1.55,1.21-2.32,1.81c3.69,2.17,7.37,4.35,11.06,6.52
					c7.53,4.44,15.05,8.87,22.58,13.31c6.2,3.66,12.4,7.31,18.6,10.97c0.72,0.42,1.44,0.85,2.16,1.27c0.14,0.08,0.76,0.5,0.67,0.32
					c0.24,0.49,0,1.71,0,2.24c0,1.66,0,3.32,0,4.99c0,7.48,0,14.97,0,22.45c0,0.17,0,0.34,0,0.51c0,0.47,1-0.22,1.11-0.31
					c0.35-0.25,1.24-0.88,1.24-1.4c0-6.63,0-13.26,0-19.89c0-3.22,0-6.44,0-9.66c0-0.36,0.06-0.6-0.15-0.85
					c-0.29-0.35-1.04-0.61-1.43-0.84c-5.63-3.32-11.27-6.64-16.9-9.96c-7.68-4.53-15.35-9.05-23.03-13.58
					c-2.97-1.75-5.95-3.51-8.92-5.26c-1.46-0.86-2.93-1.96-4.48-2.64c-0.07-0.03-0.14-0.09-0.21-0.13
					c-0.56-0.33-2.32,1.24-2.32,1.81c0,6.63,0,13.26,0,19.89c0,3.22,0,6.44,0,9.66c0,0.36-0.06,0.6,0.15,0.85
					c0.29,0.35,1.04,0.61,1.43,0.84c5.63,3.32,11.27,6.64,16.9,9.96c7.68,4.53,15.35,9.05,23.03,13.58
					c2.97,1.75,5.95,3.51,8.92,5.26c1.46,0.86,2.93,1.96,4.48,2.64c0.07,0.03,0.14,0.09,0.21,0.13
					C666.44,264.49,668.31,262.31,668.06,262.17z"/>
				<path d="M668.06,227.32c-4.73-2.79-9.46-5.58-14.19-8.37c-8.81-5.2-17.62-10.39-26.43-15.59c-3.4-2.01-6.81-4.02-10.21-6.02
					c-1.03-0.6-2.05-1.21-3.08-1.81c-0.3-0.18-0.97-0.41-1.18-0.7c0.11,0.14,0.02-0.09,0.02-0.29c0.01-0.41,0-0.83,0-1.24
					c0-1.52,0-3.04,0-4.56c0-4.76,0-9.53,0-14.29c0-5.03,0-10.06,0-15.09c0-2.97,0.13-5.98,0-8.95c-0.01-0.15,0-0.3,0-0.46
					c-0.77,0.6-1.55,1.21-2.32,1.81c4.3,2.88,8.59,5.75,12.89,8.63c8.34,5.58,16.68,11.16,25.02,16.75
					c5.56,3.72,11.12,7.44,16.68,11.17c0.13,0.09,0.36,0.18,0.46,0.31c0.09,0.11-0.05-0.2,0.02,0.1c0.2,0.86,0,2,0,2.87
					c0,4.22,0,8.44,0,12.66c0,8.13-0.15,16.28,0,24.41c0,0.16,0,0.31,0,0.47c0,0.47,1-0.22,1.11-0.31c0.35-0.25,1.24-0.88,1.24-1.4
					c0-7.06,0-14.12,0-21.17c0-4.69,0-9.39,0-14.08c0-1.42,0-2.83,0-4.25c0-0.34,0.12-0.95-0.06-1.24c-0.21-0.35-1.01-0.68-1.34-0.9
					c-1.01-0.67-2.01-1.35-3.02-2.02c-3.23-2.16-6.45-4.32-9.68-6.48c-8.39-5.62-16.79-11.24-25.18-16.86
					c-3.44-2.3-6.88-4.61-10.33-6.91c-1.72-1.15-3.44-2.58-5.27-3.53c-0.09-0.04-0.16-0.11-0.24-0.16
					c-0.54-0.36-2.32,1.27-2.32,1.81c0,6.92,0,13.83,0,20.75c0,5.05,0,10.1,0,15.15c0,2.89-0.2,5.86,0,8.74
					c0.07,0.96,1.67,1.44,2.44,1.89c3,1.77,6,3.54,9,5.31c8.78,5.18,17.57,10.36,26.35,15.54c3.72,2.19,7.44,4.39,11.16,6.58
					c1.95,1.15,3.87,2.46,5.9,3.48c0.1,0.05,0.19,0.11,0.28,0.16C666.44,229.64,668.31,227.46,668.06,227.32z"/>
				<path d="M713.46,431.29c-7.34-3.62-14.69-7.25-22.03-10.87c-3.95-1.95-7.91-3.9-11.86-5.85c-0.42-0.2-0.83-0.41-1.25-0.61
					c-0.16-0.08-0.29-0.15-0.24-0.05c-0.17-0.35,0-1.22,0-1.6c0-7.87,0-15.73,0-23.6c0-11.18,0-22.36,0-33.54c0-4.33,0-8.66,0-12.99
					c0-2.16,0.2-4.43,0-6.58c-0.01-0.1,0-0.2,0-0.3c-0.77,0.6-1.55,1.21-2.32,1.81c7.1,3.85,14.2,7.7,21.3,11.56
					c3.99,2.17,7.99,4.34,11.98,6.5c0.53,0.29,1.73,0.66,2.11,1.14c-0.08-0.1-0.04-0.03-0.02,0.18c0.03,0.28,0,0.58,0,0.87
					c0,7.55,0,15.1,0,22.65c0,11.05,0,22.11,0,33.16c0,4.34,0,8.67,0,13.01c0,1.44,0,2.88,0,4.32c0,0.74-0.09,1.56,0,2.3
					c0.01,0.1,0,0.21,0,0.3c0,0.47,1-0.22,1.11-0.31c0.35-0.25,1.24-0.88,1.24-1.4c0-8.68,0-17.36,0-26.05c0-13.81,0-27.63,0-41.44
					c0-3.14,0-6.28,0-9.42c-0.01-0.04-0.02-0.08-0.03-0.11c-10.35-5.62-20.7-11.23-31.05-16.85c-1.45-0.79-2.9-1.57-4.35-2.36
					c-0.58-0.31-2.32,1.23-2.32,1.81c0,8.85,0,17.69,0,26.54c0,14.11,0,28.23,0,42.34c0,3.26,0,6.52,0,9.77
					c0.01,0.04,0.02,0.08,0.03,0.11c10.35,5.11,20.69,10.21,31.04,15.32c1.45,0.72,2.91,1.44,4.36,2.15
					C711.9,433.58,713.66,431.38,713.46,431.29z"/>
				<path d="M713.46,349.83c-9.29-5.04-18.58-10.08-27.86-15.12c-2.04-1.11-4.09-2.22-6.13-3.33c-0.39-0.21-0.95-0.4-1.29-0.7
					c-0.12-0.1-0.11-0.01-0.09,0.03c-0.05-0.1,0-0.35,0-0.46c0.13-5.37,0-10.76,0-16.14c0-5.29,0-10.58,0-15.87
					c-0.77,0.6-1.55,1.21-2.32,1.81c8.95,5.28,17.9,10.55,26.85,15.83c2.13,1.26,4.27,2.52,6.4,3.77c0.57,0.34,1.14,0.7,1.72,1.01
					c0.1,0.05,0.3,0.13,0.37,0.22c0.11,0.12-0.05-0.19,0.03,0.01c0.16,0.42,0,1.24,0,1.68c0,1.12,0,2.25,0,3.37
					c0,3.21,0,6.43,0,9.64c0,5.34,0,10.69,0,16.03c0,0.47,1-0.22,1.11-0.31c0.35-0.25,1.24-0.88,1.24-1.4c0-10.06,0-20.11,0-30.17
					c0-0.92-0.23-0.89-1.04-1.36c-1.82-1.08-3.65-2.15-5.47-3.23c-5.74-3.39-11.49-6.77-17.23-10.16c-3.89-2.3-7.79-4.59-11.68-6.89
					c-0.56-0.33-2.32,1.24-2.32,1.81c0,9.48,0,18.96,0,28.44c0,1.35,0,2.69,0,4.04c0.01,0.04,0.02,0.08,0.03,0.11
					c10.35,5.62,20.7,11.23,31.05,16.85c1.45,0.79,2.9,1.57,4.35,2.36C711.87,352.14,713.68,349.95,713.46,349.83z"/>
			</g>
		</g>
	</g>
	<polygon class="st3" points="394.89,243.98 389.72,246.72 394.89,244.15 	"/>
	<g>
		<rect x="211.55" y="648.82" class="st3" width="578" height="18"/>
		<g>
			<polygon class="st3" points="613.56,575.78 613.81,648.82 584.81,648.82 584.81,572.01 			"/>
			<polygon class="st3" points="714.81,458.86 714.81,648.82 688.79,648.82 688.81,491.49 668.9,519.74 651.88,549.71 
				637.86,523.19 613.81,477.37 613.81,563.36 584.81,558.58 584.81,398.93 610.75,410.88 611.97,411.44 613.81,414.96 653.89,500 
				682.49,444.64 			"/>
		</g>
	</g>
	<g>
		<g>
			<path class="st7" d="M585.96,225.89l-5.36-2.94l-0.66-0.36l-10.78-5.92l-26.25-14.41v0.22l-10-5.56v-0.15l-24.03-13.19
				l-67.74,35.89l-7.86,4.17l-38.39,20.34v0.17l-5.17,2.57l-70.58,37.39l-13.6,7.2l-17.98,9.52l-2.21,1.17v13.69l2.21,1.17
				l27.5,14.6l3.97,2.11v0.2v61.07v253.98h0.11h30.89h91.11V452.46l108.76-57.62l30.7-16.27V253.69l6.02-3.88l0.06-0.03l3.45-1.84
				l4.14-2.2l2.68-1.43v-12.39L585.96,225.89z M343.95,648.82h-17V305.57l17,8.5V648.82z M396.92,424.68l-0.03-0.21v224.34h-12
				V279.39l12-3.76v137.7l82.83-35.58L396.92,424.68z M496.05,351.28l-60,29.97v-83.74l60-29.97V351.28z M507.44,356.62l2.24-99.24
				l2.24,96.81L507.44,356.62z M510.58,207.5L293.06,315.33l214.38-116.74l3.61,2.51C513.38,202.72,513.12,206.24,510.58,207.5z"/>
		</g>
		<polygon class="st8" points="580.6,254.93 581.21,238.65 596.38,244.62 		"/>
	</g>
	<g>
		<path class="st9" d="M542.73,478.38l-0.81,39.59l42.99-0.07l-0.1-118.97l-69.38,38.64l3.79,51.85L542.73,478.38z M567.26,430.07
			c3.29,0,5.95,2.67,5.95,5.95c0,3.29-2.67,5.95-5.95,5.95c-3.29,0-5.95-2.67-5.95-5.95C561.3,432.73,563.97,430.07,567.26,430.07z"
			/>
		<path class="st9" d="M557.47,601.82l-19.31-0.69l-30.35-0.53l-1.29-105.21l3.19-1.5l-28.04-18.2l-3.94,7.62l5.47,3.31
			l-0.22,134.57c0.39-0.08,0.79-0.12,1.2-0.12c3.29,0,5.95,2.67,5.95,5.95c0,3.29-2.67,5.95-5.95,5.95c-0.42,0-0.83-0.04-1.22-0.13
			l-0.03,16.77l101.88-0.8v-76.83l-41.34,1.69L557.47,601.82z M567.26,621.07c3.29,0,5.95,2.67,5.95,5.95
			c0,3.29-2.67,5.95-5.95,5.95c-3.29,0-5.95-2.67-5.95-5.95C561.3,623.73,563.97,621.07,567.26,621.07z"/>
		<polygon class="st9" points="543.47,573.68 543.14,573.69 541.81,601.19 538.16,601.13 557.47,601.82 		"/>
		
			<ellipse transform="matrix(0.9871 -0.1602 0.1602 0.9871 -62.5179 96.4946)" class="st10" cx="567.26" cy="436.02" rx="5.95" ry="5.95"/>
		
			<ellipse transform="matrix(0.9871 -0.1602 0.1602 0.9871 -93.1126 98.9608)" class="st10" cx="567.26" cy="627.02" rx="5.95" ry="5.95"/>
		<g>
			<path class="st10" d="M509.71,493.89l9.51-4.47l-3.79-51.85l-54.13,28.95l-0.25,183.27l21.88-0.17l0.03-16.77
				c0.39,0.08,0.8,0.13,1.22,0.13c3.29,0,5.95-2.67,5.95-5.95c0-3.29-2.67-5.95-5.95-5.95c-0.41,0-0.81,0.04-1.2,0.12l0.22-134.57
				l-5.47-3.31l3.94-7.62L509.71,493.89z"/>
		</g>
	</g>
</g>
</svg>
